<svg xmlns="http://www.w3.org/2000/svg" width="1500" height="900"
     viewBox="0 0 1500 900" font-family="system-ui, -apple-system, 'Segoe UI', 'Microsoft YaHei', 'PingFang SC', sans-serif" role="img"
     aria-label="GPU 由多个 SM 组成，每个 SM 内含 Warp 调度器、CUDA core、共享内存与寄存器堆；kernel 被切成线程块分发给各 SM">
<title>GPU 与 SM 结构</title>
<defs><style>
  .t-title { font-size:30px; font-weight:700; fill:#16202B; text-anchor:middle; }
  .t-sub   { font-size:16px; fill:#4A5A6A; text-anchor:middle; }
  .t-panel { font-size:20px; font-weight:700; fill:#16202B; text-anchor:middle; }
  .t-cap   { font-size:14px; fill:#4A5A6A; text-anchor:middle; }
  .t-note  { font-size:12px; fill:#4A5A6A; }
  .t-noteG { font-size:12px; fill:#8FA3B8; }
  .t-white { font-size:12px; fill:#8FA3B8; }
</style></defs>
<rect width="1500" height="900" fill="#FBFCFE"/><text class="t-title" x="750.0" y="48">GPU 与 SM：从整卡到计算单元</text><text class="t-sub" x="750.0" y="78">一张 GPU 卡 = 几十到上百个 SM；SM 是 CUDA kernel 的基本执行单元</text><rect x="80" y="120" width="340" height="340" rx="14" fill="#EEF3FA" stroke="#C9D6E6"/><text class="t-panel" x="250" y="152">GPU 整卡（H100 为例）</text><rect x="158" y="182" width="13" height="13" rx="2.5" fill="#5B8DD9"/><rect x="173" y="182" width="13" height="13" rx="2.5" fill="#5B8DD9"/><rect x="188" y="182" width="13" height="13" rx="2.5" fill="#5B8DD9"/><rect x="203" y="182" width="13" height="13" rx="2.5" fill="#5B8DD9"/><rect x="218" y="182" width="13" height="13" rx="2.5" fill="#5B8DD9"/><rect x="233" y="182" width="13" height="13" rx="2.5" fill="#5B8DD9"/><rect x="248" y="182" width="13" height="13" rx="2.5" fill="#5B8DD9"/><rect x="263" y="182" width="13" height="13" rx="2.5" fill="#5B8DD9"/><rect x="278" y="182" width="13" height="13" rx="2.5" fill="#5B8DD9"/><rect x="293" y="182" width="13" height="13" rx="2.5" fill="#5B8DD9"/><rect x="308" y="182" width="13" height="13" rx="2.5" fill="#5B8DD9"/><rect x="323" y="182" width="13" height="13" rx="2.5" fill="#5B8DD9"/><rect x="158" y="197" width="13" height="13" rx="2.5" fill="#5B8DD9"/><rect x="173" y="197" width="13" height="13" rx="2.5" fill="#5B8DD9"/><rect x="188" y="197" width="13" height="13" rx="2.5" fill="#5B8DD9"/><rect x="203" y="197" width="13" height="13" rx="2.5" fill="#5B8DD9"/><rect x="218" y="197" width="13" height="13" rx="2.5" fill="#5B8DD9"/><rect x="233" y="197" width="13" height="13" rx="2.5" fill="#5B8DD9"/><rect x="248" y="197" width="13" height="13" rx="2.5" fill="#5B8DD9"/><rect x="263" y="197" width="13" height="13" rx="2.5" fill="#5B8DD9"/><rect x="278" y="197" width="13" height="13" rx="2.5" fill="#5B8DD9"/><rect x="293" y="197" width="13" height="13" rx="2.5" fill="#5B8DD9"/><rect x="308" y="197" width="13" height="13" rx="2.5" fill="#5B8DD9"/><rect x="323" y="197" width="13" height="13" rx="2.5" fill="#5B8DD9"/><rect x="158" y="212" width="13" height="13" rx="2.5" fill="#5B8DD9"/><rect x="173" y="212" width="13" height="13" rx="2.5" fill="#5B8DD9"/><rect x="188" y="212" width="13" height="13" rx="2.5" fill="#5B8DD9"/><rect x="203" y="212" width="13" height="13" rx="2.5" fill="#5B8DD9"/><rect x="218" y="212" width="13" height="13" rx="2.5" fill="#5B8DD9"/><rect x="233" y="212" width="13" height="13" rx="2.5" fill="#5B8DD9"/><rect x="248" y="212" width="13" height="13" rx="2.5" fill="#5B8DD9"/><rect x="263" y="212" width="13" height="13" rx="2.5" fill="#5B8DD9"/><rect x="278" y="212" width="13" height="13" rx="2.5" fill="#5B8DD9"/><rect x="293" y="212" width="13" height="13" rx="2.5" fill="#5B8DD9"/><rect x="308" y="212" width="13" height="13" rx="2.5" fill="#5B8DD9"/><rect x="323" y="212" width="13" height="13" rx="2.5" fill="#5B8DD9"/><rect x="158" y="227" width="13" height="13" rx="2.5" fill="#5B8DD9"/><rect x="173" y="227" width="13" height="13" rx="2.5" fill="#5B8DD9"/><rect x="188" y="227" width="13" height="13" rx="2.5" fill="#5B8DD9"/><rect x="203" y="227" width="13" height="13" rx="2.5" fill="#5B8DD9"/><rect x="218" y="227" width="13" height="13" rx="2.5" fill="#5B8DD9"/><rect x="233" y="227" width="13" height="13" rx="2.5" fill="#5B8DD9"/><rect x="248" y="227" width="13" height="13" rx="2.5" fill="#5B8DD9"/><rect x="263" y="227" width="13" height="13" rx="2.5" fill="#5B8DD9"/><rect x="278" y="227" width="13" height="13" rx="2.5" fill="#5B8DD9"/><rect x="293" y="227" width="13" height="13" rx="2.5" fill="#5B8DD9"/><rect x="308" y="227" width="13" height="13" rx="2.5" fill="#5B8DD9"/><rect x="323" y="227" width="13" height="13" rx="2.5" fill="#5B8DD9"/><rect x="158" y="242" width="13" height="13" rx="2.5" fill="#5B8DD9"/><rect x="173" y="242" width="13" height="13" rx="2.5" fill="#5B8DD9"/><rect x="188" y="242" width="13" height="13" rx="2.5" fill="#5B8DD9"/><rect x="203" y="242" width="13" height="13" rx="2.5" fill="#5B8DD9"/><rect x="218" y="242" width="13" height="13" rx="2.5" fill="#5B8DD9"/><rect x="233" y="242" width="13" height="13" rx="2.5" fill="#5B8DD9"/><rect x="248" y="242" width="13" height="13" rx="2.5" fill="#5B8DD9"/><rect x="263" y="242" width="13" height="13" rx="2.5" fill="#5B8DD9"/><rect x="278" y="242" width="13" height="13" rx="2.5" fill="#5B8DD9"/><rect x="293" y="242" width="13" height="13" rx="2.5" fill="#5B8DD9"/><rect x="308" y="242" width="13" height="13" rx="2.5" fill="#5B8DD9"/><rect x="323" y="242" width="13" height="13" rx="2.5" fill="#5B8DD9"/><rect x="158" y="257" width="13" height="13" rx="2.5" fill="#5B8DD9"/><rect x="173" y="257" width="13" height="13" rx="2.5" fill="#5B8DD9"/><rect x="188" y="257" width="13" height="13" rx="2.5" fill="#E08A1E"/><rect x="203" y="257" width="13" height="13" rx="2.5" fill="#5B8DD9"/><rect x="218" y="257" width="13" height="13" rx="2.5" fill="#5B8DD9"/><rect x="233" y="257" width="13" height="13" rx="2.5" fill="#5B8DD9"/><rect x="248" y="257" width="13" height="13" rx="2.5" fill="#5B8DD9"/><rect x="263" y="257" width="13" height="13" rx="2.5" fill="#5B8DD9"/><rect x="278" y="257" width="13" height="13" rx="2.5" fill="#5B8DD9"/><rect x="293" y="257" width="13" height="13" rx="2.5" fill="#5B8DD9"/><rect x="308" y="257" width="13" height="13" rx="2.5" fill="#5B8DD9"/><rect x="323" y="257" width="13" height="13" rx="2.5" fill="#5B8DD9"/><rect x="158" y="272" width="13" height="13" rx="2.5" fill="#5B8DD9"/><rect x="173" y="272" width="13" height="13" rx="2.5" fill="#5B8DD9"/><rect x="188" y="272" width="13" height="13" rx="2.5" fill="#5B8DD9"/><rect x="203" y="272" width="13" height="13" rx="2.5" fill="#5B8DD9"/><rect x="218" y="272" width="13" height="13" rx="2.5" fill="#5B8DD9"/><rect x="233" y="272" width="13" height="13" rx="2.5" fill="#5B8DD9"/><rect x="248" y="272" width="13" height="13" rx="2.5" fill="#5B8DD9"/><rect x="263" y="272" width="13" height="13" rx="2.5" fill="#5B8DD9"/><rect x="278" y="272" width="13" height="13" rx="2.5" fill="#5B8DD9"/><rect x="293" y="272" width="13" height="13" rx="2.5" fill="#5B8DD9"/><rect x="308" y="272" width="13" height="13" rx="2.5" fill="#5B8DD9"/><rect x="323" y="272" width="13" height="13" rx="2.5" fill="#5B8DD9"/><rect x="158" y="287" width="13" height="13" rx="2.5" fill="#5B8DD9"/><rect x="173" y="287" width="13" height="13" rx="2.5" fill="#5B8DD9"/><rect x="188" y="287" width="13" height="13" rx="2.5" fill="#5B8DD9"/><rect x="203" y="287" width="13" height="13" rx="2.5" fill="#5B8DD9"/><rect x="218" y="287" width="13" height="13" rx="2.5" fill="#5B8DD9"/><rect x="233" y="287" width="13" height="13" rx="2.5" fill="#5B8DD9"/><rect x="248" y="287" width="13" height="13" rx="2.5" fill="#5B8DD9"/><rect x="263" y="287" width="13" height="13" rx="2.5" fill="#5B8DD9"/><rect x="278" y="287" width="13" height="13" rx="2.5" fill="#5B8DD9"/><rect x="293" y="287" width="13" height="13" rx="2.5" fill="#5B8DD9"/><rect x="308" y="287" width="13" height="13" rx="2.5" fill="#5B8DD9"/><rect x="323" y="287" width="13" height="13" rx="2.5" fill="#5B8DD9"/><rect x="158" y="302" width="13" height="13" rx="2.5" fill="#5B8DD9"/><rect x="173" y="302" width="13" height="13" rx="2.5" fill="#5B8DD9"/><rect x="188" y="302" width="13" height="13" rx="2.5" fill="#5B8DD9"/><rect x="203" y="302" width="13" height="13" rx="2.5" fill="#5B8DD9"/><rect x="218" y="302" width="13" height="13" rx="2.5" fill="#5B8DD9"/><rect x="233" y="302" width="13" height="13" rx="2.5" fill="#5B8DD9"/><rect x="248" y="302" width="13" height="13" rx="2.5" fill="#5B8DD9"/><rect x="263" y="302" width="13" height="13" rx="2.5" fill="#5B8DD9"/><rect x="278" y="302" width="13" height="13" rx="2.5" fill="#5B8DD9"/><rect x="293" y="302" width="13" height="13" rx="2.5" fill="#5B8DD9"/><rect x="308" y="302" width="13" height="13" rx="2.5" fill="#5B8DD9"/><rect x="323" y="302" width="13" height="13" rx="2.5" fill="#5B8DD9"/><rect x="158" y="317" width="13" height="13" rx="2.5" fill="#5B8DD9"/><rect x="173" y="317" width="13" height="13" rx="2.5" fill="#5B8DD9"/><rect x="188" y="317" width="13" height="13" rx="2.5" fill="#5B8DD9"/><rect x="203" y="317" width="13" height="13" rx="2.5" fill="#5B8DD9"/><rect x="218" y="317" width="13" height="13" rx="2.5" fill="#5B8DD9"/><rect x="233" y="317" width="13" height="13" rx="2.5" fill="#5B8DD9"/><rect x="248" y="317" width="13" height="13" rx="2.5" fill="#5B8DD9"/><rect x="263" y="317" width="13" height="13" rx="2.5" fill="#5B8DD9"/><rect x="278" y="317" width="13" height="13" rx="2.5" fill="#5B8DD9"/><rect x="293" y="317" width="13" height="13" rx="2.5" fill="#5B8DD9"/><rect x="308" y="317" width="13" height="13" rx="2.5" fill="#5B8DD9"/><rect x="323" y="317" width="13" height="13" rx="2.5" fill="#5B8DD9"/><rect x="158" y="332" width="13" height="13" rx="2.5" fill="#5B8DD9"/><rect x="173" y="332" width="13" height="13" rx="2.5" fill="#5B8DD9"/><rect x="188" y="332" width="13" height="13" rx="2.5" fill="#5B8DD9"/><rect x="203" y="332" width="13" height="13" rx="2.5" fill="#5B8DD9"/><rect x="218" y="332" width="13" height="13" rx="2.5" fill="#5B8DD9"/><rect x="233" y="332" width="13" height="13" rx="2.5" fill="#5B8DD9"/><rect x="248" y="332" width="13" height="13" rx="2.5" fill="#5B8DD9"/><rect x="263" y="332" width="13" height="13" rx="2.5" fill="#5B8DD9"/><rect x="278" y="332" width="13" height="13" rx="2.5" fill="#5B8DD9"/><rect x="293" y="332" width="13" height="13" rx="2.5" fill="#5B8DD9"/><rect x="308" y="332" width="13" height="13" rx="2.5" fill="#5B8DD9"/><rect x="323" y="332" width="13" height="13" rx="2.5" fill="#5B8DD9"/><text class="t-cap" x="250" y="410">132 个小格 = 132 个 SM</text><text class="t-note" x="250" y="432" text-anchor="middle" fill="#4A5A6A">A100 有 108 个 SM</text><path d="M 207 264 C 320 200, 420 220, 505 300" fill="none" stroke="#E08A1E" stroke-width="2.5" stroke-dasharray="6 4" marker-end="url(#zoomArr)"/><text x="350" y="232" text-anchor="middle" font-size="14" fill="#16202B" font-weight="600">放大一个 SM</text><rect x="460" y="120" width="980" height="340" rx="14" fill="#EEF3FA" stroke="#C9D6E6"/><text class="t-panel" x="950" y="152">放大一个 SM：内部组成（简化示意）</text><rect x="540" y="180" width="480" height="250" rx="12" fill="#1F2A36" stroke="#3B4C5E"/><text x="560" y="208" font-size="18" font-weight="700" fill="#DCE6F0">SM（流式多处理器）</text><text x="560" y="235" font-size="13" fill="#8FA3B8">Warp 调度器 ×4</text><rect x="560" y="242" width="30" height="30" rx="5" fill="#3FB27F"/><rect x="595" y="242" width="30" height="30" rx="5" fill="#3FB27F"/><rect x="630" y="242" width="30" height="30" rx="5" fill="#3FB27F"/><rect x="665" y="242" width="30" height="30" rx="5" fill="#3FB27F"/><text x="740" y="235" font-size="13" fill="#8FA3B8">CUDA core：128 个 FP32</text><rect x="740" y="244" width="4" height="4" rx="1" fill="#4C9BE8"/><rect x="747" y="244" width="4" height="4" rx="1" fill="#4C9BE8"/><rect x="754" y="244" width="4" height="4" rx="1" fill="#4C9BE8"/><rect x="761" y="244" width="4" height="4" rx="1" fill="#4C9BE8"/><rect x="768" y="244" width="4" height="4" rx="1" fill="#4C9BE8"/><rect x="775" y="244" width="4" height="4" rx="1" fill="#4C9BE8"/><rect x="782" y="244" width="4" height="4" rx="1" fill="#4C9BE8"/><rect x="789" y="244" width="4" height="4" rx="1" fill="#4C9BE8"/><rect x="796" y="244" width="4" height="4" rx="1" fill="#4C9BE8"/><rect x="803" y="244" width="4" height="4" rx="1" fill="#4C9BE8"/><rect x="810" y="244" width="4" height="4" rx="1" fill="#4C9BE8"/><rect x="817" y="244" width="4" height="4" rx="1" fill="#4C9BE8"/><rect x="824" y="244" width="4" height="4" rx="1" fill="#4C9BE8"/><rect x="831" y="244" width="4" height="4" rx="1" fill="#4C9BE8"/><rect x="838" y="244" width="4" height="4" rx="1" fill="#4C9BE8"/><rect x="845" y="244" width="4" height="4" rx="1" fill="#4C9BE8"/><rect x="740" y="251" width="4" height="4" rx="1" fill="#4C9BE8"/><rect x="747" y="251" width="4" height="4" rx="1" fill="#4C9BE8"/><rect x="754" y="251" width="4" height="4" rx="1" fill="#4C9BE8"/><rect x="761" y="251" width="4" height="4" rx="1" fill="#4C9BE8"/><rect x="768" y="251" width="4" height="4" rx="1" fill="#4C9BE8"/><rect x="775" y="251" width="4" height="4" rx="1" fill="#4C9BE8"/><rect x="782" y="251" width="4" height="4" rx="1" fill="#4C9BE8"/><rect x="789" y="251" width="4" height="4" rx="1" fill="#4C9BE8"/><rect x="796" y="251" width="4" height="4" rx="1" fill="#4C9BE8"/><rect x="803" y="251" width="4" height="4" rx="1" fill="#4C9BE8"/><rect x="810" y="251" width="4" height="4" rx="1" fill="#4C9BE8"/><rect x="817" y="251" width="4" height="4" rx="1" fill="#4C9BE8"/><rect x="824" y="251" width="4" height="4" rx="1" fill="#4C9BE8"/><rect x="831" y="251" width="4" height="4" rx="1" fill="#4C9BE8"/><rect x="838" y="251" width="4" height="4" rx="1" fill="#4C9BE8"/><rect x="845" y="251" width="4" height="4" rx="1" fill="#4C9BE8"/><rect x="740" y="258" width="4" height="4" rx="1" fill="#4C9BE8"/><rect x="747" y="258" width="4" height="4" rx="1" fill="#4C9BE8"/><rect x="754" y="258" width="4" height="4" rx="1" fill="#4C9BE8"/><rect x="761" y="258" width="4" height="4" rx="1" fill="#4C9BE8"/><rect x="768" y="258" width="4" height="4" rx="1" fill="#4C9BE8"/><rect x="775" y="258" width="4" height="4" rx="1" fill="#4C9BE8"/><rect x="782" y="258" width="4" height="4" rx="1" fill="#4C9BE8"/><rect x="789" y="258" width="4" height="4" rx="1" fill="#4C9BE8"/><rect x="796" y="258" width="4" height="4" rx="1" fill="#4C9BE8"/><rect x="803" y="258" width="4" height="4" rx="1" fill="#4C9BE8"/><rect x="810" y="258" width="4" height="4" rx="1" fill="#4C9BE8"/><rect x="817" y="258" width="4" height="4" rx="1" fill="#4C9BE8"/><rect x="824" y="258" width="4" height="4" rx="1" fill="#4C9BE8"/><rect x="831" y="258" width="4" height="4" rx="1" fill="#4C9BE8"/><rect x="838" y="258" width="4" height="4" rx="1" fill="#4C9BE8"/><rect x="845" y="258" width="4" height="4" rx="1" fill="#4C9BE8"/><rect x="740" y="265" width="4" height="4" rx="1" fill="#4C9BE8"/><rect x="747" y="265" width="4" height="4" rx="1" fill="#4C9BE8"/><rect x="754" y="265" width="4" height="4" rx="1" fill="#4C9BE8"/><rect x="761" y="265" width="4" height="4" rx="1" fill="#4C9BE8"/><rect x="768" y="265" width="4" height="4" rx="1" fill="#4C9BE8"/><rect x="775" y="265" width="4" height="4" rx="1" fill="#4C9BE8"/><rect x="782" y="265" width="4" height="4" rx="1" fill="#4C9BE8"/><rect x="789" y="265" width="4" height="4" rx="1" fill="#4C9BE8"/><rect x="796" y="265" width="4" height="4" rx="1" fill="#4C9BE8"/><rect x="803" y="265" width="4" height="4" rx="1" fill="#4C9BE8"/><rect x="810" y="265" width="4" height="4" rx="1" fill="#4C9BE8"/><rect x="817" y="265" width="4" height="4" rx="1" fill="#4C9BE8"/><rect x="824" y="265" width="4" height="4" rx="1" fill="#4C9BE8"/><rect x="831" y="265" width="4" height="4" rx="1" fill="#4C9BE8"/><rect x="838" y="265" width="4" height="4" rx="1" fill="#4C9BE8"/><rect x="845" y="265" width="4" height="4" rx="1" fill="#4C9BE8"/><rect x="740" y="272" width="4" height="4" rx="1" fill="#4C9BE8"/><rect x="747" y="272" width="4" height="4" rx="1" fill="#4C9BE8"/><rect x="754" y="272" width="4" height="4" rx="1" fill="#4C9BE8"/><rect x="761" y="272" width="4" height="4" rx="1" fill="#4C9BE8"/><rect x="768" y="272" width="4" height="4" rx="1" fill="#4C9BE8"/><rect x="775" y="272" width="4" height="4" rx="1" fill="#4C9BE8"/><rect x="782" y="272" width="4" height="4" rx="1" fill="#4C9BE8"/><rect x="789" y="272" width="4" height="4" rx="1" fill="#4C9BE8"/><rect x="796" y="272" width="4" height="4" rx="1" fill="#4C9BE8"/><rect x="803" y="272" width="4" height="4" rx="1" fill="#4C9BE8"/><rect x="810" y="272" width="4" height="4" rx="1" fill="#4C9BE8"/><rect x="817" y="272" width="4" height="4" rx="1" fill="#4C9BE8"/><rect x="824" y="272" width="4" height="4" rx="1" fill="#4C9BE8"/><rect x="831" y="272" width="4" height="4" rx="1" fill="#4C9BE8"/><rect x="838" y="272" width="4" height="4" rx="1" fill="#4C9BE8"/><rect x="845" y="272" width="4" height="4" rx="1" fill="#4C9BE8"/><rect x="740" y="279" width="4" height="4" rx="1" fill="#4C9BE8"/><rect x="747" y="279" width="4" height="4" rx="1" fill="#4C9BE8"/><rect x="754" y="279" width="4" height="4" rx="1" fill="#4C9BE8"/><rect x="761" y="279" width="4" height="4" rx="1" fill="#4C9BE8"/><rect x="768" y="279" width="4" height="4" rx="1" fill="#4C9BE8"/><rect x="775" y="279" width="4" height="4" rx="1" fill="#4C9BE8"/><rect x="782" y="279" width="4" height="4" rx="1" fill="#4C9BE8"/><rect x="789" y="279" width="4" height="4" rx="1" fill="#4C9BE8"/><rect x="796" y="279" width="4" height="4" rx="1" fill="#4C9BE8"/><rect x="803" y="279" width="4" height="4" rx="1" fill="#4C9BE8"/><rect x="810" y="279" width="4" height="4" rx="1" fill="#4C9BE8"/><rect x="817" y="279" width="4" height="4" rx="1" fill="#4C9BE8"/><rect x="824" y="279" width="4" height="4" rx="1" fill="#4C9BE8"/><rect x="831" y="279" width="4" height="4" rx="1" fill="#4C9BE8"/><rect x="838" y="279" width="4" height="4" rx="1" fill="#4C9BE8"/><rect x="845" y="279" width="4" height="4" rx="1" fill="#4C9BE8"/><rect x="740" y="286" width="4" height="4" rx="1" fill="#4C9BE8"/><rect x="747" y="286" width="4" height="4" rx="1" fill="#4C9BE8"/><rect x="754" y="286" width="4" height="4" rx="1" fill="#4C9BE8"/><rect x="761" y="286" width="4" height="4" rx="1" fill="#4C9BE8"/><rect x="768" y="286" width="4" height="4" rx="1" fill="#4C9BE8"/><rect x="775" y="286" width="4" height="4" rx="1" fill="#4C9BE8"/><rect x="782" y="286" width="4" height="4" rx="1" fill="#4C9BE8"/><rect x="789" y="286" width="4" height="4" rx="1" fill="#4C9BE8"/><rect x="796" y="286" width="4" height="4" rx="1" fill="#4C9BE8"/><rect x="803" y="286" width="4" height="4" rx="1" fill="#4C9BE8"/><rect x="810" y="286" width="4" height="4" rx="1" fill="#4C9BE8"/><rect x="817" y="286" width="4" height="4" rx="1" fill="#4C9BE8"/><rect x="824" y="286" width="4" height="4" rx="1" fill="#4C9BE8"/><rect x="831" y="286" width="4" height="4" rx="1" fill="#4C9BE8"/><rect x="838" y="286" width="4" height="4" rx="1" fill="#4C9BE8"/><rect x="845" y="286" width="4" height="4" rx="1" fill="#4C9BE8"/><rect x="740" y="293" width="4" height="4" rx="1" fill="#4C9BE8"/><rect x="747" y="293" width="4" height="4" rx="1" fill="#4C9BE8"/><rect x="754" y="293" width="4" height="4" rx="1" fill="#4C9BE8"/><rect x="761" y="293" width="4" height="4" rx="1" fill="#4C9BE8"/><rect x="768" y="293" width="4" height="4" rx="1" fill="#4C9BE8"/><rect x="775" y="293" width="4" height="4" rx="1" fill="#4C9BE8"/><rect x="782" y="293" width="4" height="4" rx="1" fill="#4C9BE8"/><rect x="789" y="293" width="4" height="4" rx="1" fill="#4C9BE8"/><rect x="796" y="293" width="4" height="4" rx="1" fill="#4C9BE8"/><rect x="803" y="293" width="4" height="4" rx="1" fill="#4C9BE8"/><rect x="810" y="293" width="4" height="4" rx="1" fill="#4C9BE8"/><rect x="817" y="293" width="4" height="4" rx="1" fill="#4C9BE8"/><rect x="824" y="293" width="4" height="4" rx="1" fill="#4C9BE8"/><rect x="831" y="293" width="4" height="4" rx="1" fill="#4C9BE8"/><rect x="838" y="293" width="4" height="4" rx="1" fill="#4C9BE8"/><rect x="845" y="293" width="4" height="4" rx="1" fill="#4C9BE8"/><rect x="560" y="330" width="200" height="35" rx="6" fill="#B07CC6"/><text x="660" y="352" text-anchor="middle" font-size="13" fill="#FFFFFF" font-weight="600">Shared Memory 228 KB</text><rect x="780" y="330" width="200" height="35" rx="6" fill="#F2A33C"/><text x="880" y="352" text-anchor="middle" font-size="13" fill="#16202B" font-weight="600">Register File 256 KB</text><text x="560" y="400" font-size="12" fill="#8FA3B8">一个小格 = 一个简单算数单元（ALU），只会做乘法/加法</text><text x="560" y="438" font-size="13" fill="#4A5A6A" font-weight="600">1 Warp = 32 个线程（调度器整组发射、整组执行）</text><circle cx="563" cy="448" r="5" fill="#4C9BE8"/><circle cx="577" cy="448" r="5" fill="#4C9BE8"/><circle cx="591" cy="448" r="5" fill="#4C9BE8"/><circle cx="605" cy="448" r="5" fill="#4C9BE8"/><circle cx="619" cy="448" r="5" fill="#4C9BE8"/><circle cx="633" cy="448" r="5" fill="#4C9BE8"/><circle cx="647" cy="448" r="5" fill="#4C9BE8"/><circle cx="661" cy="448" r="5" fill="#4C9BE8"/><circle cx="675" cy="448" r="5" fill="#4C9BE8"/><circle cx="689" cy="448" r="5" fill="#4C9BE8"/><circle cx="703" cy="448" r="5" fill="#4C9BE8"/><circle cx="717" cy="448" r="5" fill="#4C9BE8"/><circle cx="731" cy="448" r="5" fill="#4C9BE8"/><circle cx="745" cy="448" r="5" fill="#4C9BE8"/><circle cx="759" cy="448" r="5" fill="#4C9BE8"/><circle cx="773" cy="448" r="5" fill="#4C9BE8"/><circle cx="563" cy="464" r="5" fill="#4C9BE8"/><circle cx="577" cy="464" r="5" fill="#4C9BE8"/><circle cx="591" cy="464" r="5" fill="#4C9BE8"/><circle cx="605" cy="464" r="5" fill="#4C9BE8"/><circle cx="619" cy="464" r="5" fill="#4C9BE8"/><circle cx="633" cy="464" r="5" fill="#4C9BE8"/><circle cx="647" cy="464" r="5" fill="#4C9BE8"/><circle cx="661" cy="464" r="5" fill="#4C9BE8"/><circle cx="675" cy="464" r="5" fill="#4C9BE8"/><circle cx="689" cy="464" r="5" fill="#4C9BE8"/><circle cx="703" cy="464" r="5" fill="#4C9BE8"/><circle cx="717" cy="464" r="5" fill="#4C9BE8"/><circle cx="731" cy="464" r="5" fill="#4C9BE8"/><circle cx="745" cy="464" r="5" fill="#4C9BE8"/><circle cx="759" cy="464" r="5" fill="#4C9BE8"/><circle cx="773" cy="464" r="5" fill="#4C9BE8"/><text x="1070" y="210" font-size="14" font-weight="700" fill="#16202B">关键对照</text><text x="1070" y="236" font-size="13" fill="#4A5A6A">CPU 的“核” ≈ GPU 的 SM</text><text x="1070" y="258" font-size="13" fill="#4A5A6A">SM 里的 CUDA core ≈ “小兵”</text><text x="1070" y="280" font-size="13" fill="#4A5A6A">128 核 = 128 个 FP32 单元</text><text x="1070" y="302" font-size="13" fill="#4A5A6A">共享内存 / 寄存器是片上高速存储</text><text x="1070" y="324" font-size="13" fill="#4A5A6A">Warp 调度器每次发射一个 Warp</text><text x="1070" y="356" font-size="12" fill="#8FA3B8">Hopper H100：128 FP32 core/SM</text><text x="1070" y="376" font-size="12" fill="#8FA3B8">Blackwell：SM 结构有调整</text><rect x="80" y="500" width="1360" height="340" rx="14" fill="#EEF3FA" stroke="#C9D6E6"/><text class="t-panel" x="760" y="532">执行流程：一次 kernel 调用如何把计算派到各个 SM</text><rect x="140" y="600" width="200" height="90" rx="10" fill="#4C9BE8"/><text x="240" y="642" text-anchor="middle" font-size="20" font-weight="700" fill="#FFFFFF">CUDA Kernel</text><text x="240" y="668" text-anchor="middle" font-size="12" fill="#EAF2FB">（一次 GPU 函数调用）</text><line x1="340" y1="645" x2="430" y2="645" stroke="#16202B" stroke-width="2" marker-end="url(#nArr)"/><text x="385" y="630" text-anchor="middle" font-size="13" fill="#4A5A6A">切分</text><rect x="440" y="622" width="76" height="46" rx="6" fill="#FBFCFE" stroke="#4C9BE8" stroke-width="1.6"/><text x="478" y="650" text-anchor="middle" font-size="13" fill="#16202B" font-weight="600">TB0</text><rect x="526" y="622" width="76" height="46" rx="6" fill="#FBFCFE" stroke="#4C9BE8" stroke-width="1.6"/><text x="564" y="650" text-anchor="middle" font-size="13" fill="#16202B" font-weight="600">TB1</text><rect x="612" y="622" width="76" height="46" rx="6" fill="#FBFCFE" stroke="#4C9BE8" stroke-width="1.6"/><text x="650" y="650" text-anchor="middle" font-size="13" fill="#16202B" font-weight="600">TB2</text><rect x="440" y="678" width="76" height="46" rx="6" fill="#FBFCFE" stroke="#4C9BE8" stroke-width="1.6"/><text x="478" y="706" text-anchor="middle" font-size="13" fill="#16202B" font-weight="600">TB3</text><rect x="526" y="678" width="76" height="46" rx="6" fill="#FBFCFE" stroke="#4C9BE8" stroke-width="1.6"/><text x="564" y="706" text-anchor="middle" font-size="13" fill="#16202B" font-weight="600">TB4</text><rect x="612" y="678" width="76" height="46" rx="6" fill="#FBFCFE" stroke="#4C9BE8" stroke-width="1.6"/><text x="650" y="706" text-anchor="middle" font-size="13" fill="#16202B" font-weight="600">TB5</text><text x="700" y="610" text-anchor="middle" font-size="13" fill="#4A5A6A">线程块 Thread Block 0..5</text><line x1="700" y1="668" x2="1060" y2="645" stroke="#16202B" stroke-width="2" marker-end="url(#nArr)"/><text x="880" y="690" text-anchor="middle" font-size="13" fill="#4A5A6A">GigaThread 按占用率分发</text><rect x="1080" y="600" width="90" height="90" rx="10" fill="#5B8DD9"/><text x="1125" y="646" text-anchor="middle" font-size="17" font-weight="700" fill="#FFFFFF">SM 0</text><text x="1125" y="668" text-anchor="middle" font-size="11" fill="#DCE6F0">驻留多个 TB</text><rect x="1176" y="600" width="90" height="90" rx="10" fill="#5B8DD9"/><text x="1221" y="646" text-anchor="middle" font-size="17" font-weight="700" fill="#FFFFFF">SM 1</text><text x="1221" y="668" text-anchor="middle" font-size="11" fill="#DCE6F0">驻留多个 TB</text><rect x="1272" y="600" width="90" height="90" rx="10" fill="#5B8DD9"/><text x="1317" y="646" text-anchor="middle" font-size="17" font-weight="700" fill="#FFFFFF">SM 2</text><text x="1317" y="668" text-anchor="middle" font-size="11" fill="#DCE6F0">驻留多个 TB</text><text class="t-note" x="760" y="760" text-anchor="middle" fill="#4A5A6A">占用率 occupancy：一个 SM 上能同时驻留多少个线程块 —— 受共享内存、寄存器、Warp 数量上限共同限制。</text><text class="t-note" x="760" y="784" text-anchor="middle" fill="#4A5A6A">SM 数量是稀缺资源 —— 这也正是 DeepEP 让通信 kernel 只占 4~6 个 SM、把其余全部让给计算的原因。</text><defs>
<marker id="nArr" viewBox="0 0 12 12" refX="10" refY="6" markerUnits="userSpaceOnUse" markerWidth="9" markerHeight="9" orient="auto">
  <path d="M0,0 L12,6 L0,12 z" fill="#16202B"/></marker>
<marker id="zoomArr" viewBox="0 0 12 12" refX="10" refY="6" markerUnits="userSpaceOnUse" markerWidth="9" markerHeight="9" orient="auto">
  <path d="M0,0 L12,6 L0,12 z" fill="#E08A1E"/></marker>
</defs></svg>
